<?xml version="1.0" encoding="UTF-8" standalone="no"?>
<!-- Created with Inkscape (http://www.inkscape.org/) -->

<svg
   xmlns:dc="http://purl.org/dc/elements/1.1/"
   xmlns:cc="http://creativecommons.org/ns#"
   xmlns:rdf="http://www.w3.org/1999/02/22-rdf-syntax-ns#"
   xmlns:svg="http://www.w3.org/2000/svg"
   xmlns="http://www.w3.org/2000/svg"
   xmlns:sodipodi="http://sodipodi.sourceforge.net/DTD/sodipodi-0.dtd"
   xmlns:inkscape="http://www.inkscape.org/namespaces/inkscape"
   width="200"
   height="35.825001"
   id="svg2"
   sodipodi:version="0.32"
   inkscape:version="0.48.1 "
   version="1.0"
   sodipodi:docname="BBC_Sport.svg"
   inkscape:output_extension="org.inkscape.output.svg.inkscape">
  <defs
     id="defs4">
    <inkscape:perspective
       sodipodi:type="inkscape:persp3d"
       inkscape:vp_x="0 : 526.18109 : 1"
       inkscape:vp_y="0 : 1000 : 0"
       inkscape:vp_z="744.09448 : 526.18109 : 1"
       inkscape:persp3d-origin="372.04724 : 350.78739 : 1"
       id="perspective10" />
    <inkscape:perspective
       id="perspective2455"
       inkscape:persp3d-origin="372.04724 : 350.78739 : 1"
       inkscape:vp_z="744.09448 : 526.18109 : 1"
       inkscape:vp_y="0 : 1000 : 0"
       inkscape:vp_x="0 : 526.18109 : 1"
       sodipodi:type="inkscape:persp3d" />
    <inkscape:perspective
       id="perspective2507"
       inkscape:persp3d-origin="372.04724 : 350.78739 : 1"
       inkscape:vp_z="744.09448 : 526.18109 : 1"
       inkscape:vp_y="0 : 1000 : 0"
       inkscape:vp_x="0 : 526.18109 : 1"
       sodipodi:type="inkscape:persp3d" />
    <inkscape:perspective
       id="perspective2595"
       inkscape:persp3d-origin="93.542999 : 18.537333 : 1"
       inkscape:vp_z="187.086 : 27.806 : 1"
       inkscape:vp_y="0 : 1000 : 0"
       inkscape:vp_x="0 : 27.806 : 1"
       sodipodi:type="inkscape:persp3d" />
    <inkscape:perspective
       id="perspective11"
       inkscape:persp3d-origin="301.18109 : 62.716532 : 1"
       inkscape:vp_z="602.36218 : 94.074799 : 1"
       inkscape:vp_y="0 : 1000 : 0"
       inkscape:vp_x="0 : 94.074799 : 1"
       sodipodi:type="inkscape:persp3d" />
    <inkscape:perspective
       id="perspective2833"
       inkscape:persp3d-origin="372.04724 : 350.78739 : 1"
       inkscape:vp_z="744.09448 : 526.18109 : 1"
       inkscape:vp_y="0 : 1000 : 0"
       inkscape:vp_x="0 : 526.18109 : 1"
       sodipodi:type="inkscape:persp3d" />
  </defs>
  <sodipodi:namedview
     id="base"
     pagecolor="#ffffff"
     bordercolor="#666666"
     borderopacity="1.0"
     gridtolerance="10000"
     guidetolerance="10"
     objecttolerance="10"
     inkscape:pageopacity="0.0"
     inkscape:pageshadow="2"
     inkscape:zoom="24.23962"
     inkscape:cx="109.24267"
     inkscape:cy="3.9240121"
     inkscape:document-units="px"
     inkscape:current-layer="layer1"
     showgrid="true"
     inkscape:window-width="1373"
     inkscape:window-height="1008"
     inkscape:window-x="529"
     inkscape:window-y="0"
     fit-margin-top="0.5"
     fit-margin-left="0.5"
     fit-margin-right="0.5"
     fit-margin-bottom="0.5"
     inkscape:window-maximized="0">
    <inkscape:grid
       type="xygrid"
       id="grid2612"
       visible="true"
       enabled="true"
       empspacing="5"
       snapvisiblegridlinesonly="true" />
  </sodipodi:namedview>
  <metadata
     id="metadata7">
    <rdf:RDF>
      <cc:Work
         rdf:about="">
        <dc:format>image/svg+xml</dc:format>
        <dc:type
           rdf:resource="http://purl.org/dc/dcmitype/StillImage" />
      </cc:Work>
    </rdf:RDF>
  </metadata>
  <g
     inkscape:label="Layer 1"
     inkscape:groupmode="layer"
     id="layer1"
     transform="translate(-178.74795,-816.52951)">
    <g
       id="g3892"
       transform="matrix(0.71071429,0,0,0.71071429,76.905099,174.28643)">
      <rect
         y="904.36212"
         x="143.99998"
         height="49"
         width="280"
         id="rect3882"
         style="fill:none;fill-opacity:0;fill-rule:nonzero;stroke:none" />
      <g
         style="fill:#000000;fill-opacity:1"
         inkscape:label="Layer 1"
         id="layer1-7"
         transform="matrix(0.38743096,0,0,0.38743096,141.29424,547.30667)">
        <g
           id="g3047"
           transform="matrix(0.82302261,0,0,-0.82302261,189.63913,997.27701)"
           style="fill:#000000;fill-opacity:1">
          <path
             id="path3049"
             style="fill:#000000;fill-opacity:1;fill-rule:nonzero;stroke:none"
             d="m 0,0 c 0,-11.25 -14,-10.583 -14,-10.583 l -14,0 0,20.333 14,0 C 0.417,9.833 0,0 0,0 m -28,40.75 10.667,0 c 11.083,-0.584 10.666,-8.833 10.666,-8.833 0,-10.25 -12.25,-10.417 -12.25,-10.417 l -9.083,0 0,19.25 z M -2.583,17.5 c 0,0 9.583,4.083 9.5,14.917 0,0 1.457,17.749 -22.063,19.916 l -26.104,0 0,-74.416 29.917,0 c 0,0 25,-0.084 25,21 0,0 0.583,14.333 -16.25,18.583 m -67.545,49.4156 109.878,0 0,-103.544 -109.878,0 0,103.544 z"
             inkscape:connector-curvature="0" />
        </g>
        <g
           transform="matrix(0.82302261,0,0,-0.82302261,85.355129,997.27701)"
           id="g2186"
           style="fill:#000000;fill-opacity:1">
          <path
             inkscape:connector-curvature="0"
             d="m 0,0 c 0,-11.25 -14,-10.583 -14,-10.583 l -14,0 0,20.333 14,0 C 0.417,9.833 0,0 0,0 m -28,40.75 10.667,0 c 11.083,-0.584 10.666,-8.833 10.666,-8.833 0,-10.25 -12.25,-10.417 -12.25,-10.417 l -9.083,0 0,19.25 z M -2.583,17.5 c 0,0 9.583,4.083 9.5,14.917 0,0 1.457,17.749 -22.063,19.916 l -26.104,0 0,-74.416 29.917,0 c 0,0 25,-0.084 25,21 0,0 0.583,14.333 -16.25,18.583 m -67.545,49.4156 109.878,0 0,-103.544 -109.878,0 0,103.544 z"
             style="fill:#000000;fill-opacity:1;fill-rule:nonzero;stroke:none"
             id="path2188" />
        </g>
        <g
           transform="matrix(0.82302261,0,0,-0.82302261,308.1885,958.5961)"
           id="g2190"
           style="fill:#000000;fill-opacity:1">
          <path
             inkscape:connector-curvature="0"
             d="m 0,0 0,-13.75 c 0,0 -13.417,8.25 -28.25,8.417 0,0 -27.666,0.54 -28.916,-26.522 0,0 -1,-24.895 28.583,-26.312 0,0 12.417,-1.5 29.25,9.25 l 0,-14.25 c 0,0 -22.583,-13.416 -48.75,-3.083 0,0 -22,8.04 -22.834,34.395 0,0 -0.917,27.105 28.417,36.105 0,0 7.834,3 21.917,1.667 0,0 8.416,-0.834 20.583,-5.917 m -87.461,-83.627 109.878,0 0,103.544 -109.878,0 0,-103.544 z"
             style="fill:#000000;fill-opacity:1;fill-rule:nonzero;stroke:none"
             id="path2192" />
        </g>
      </g>
      <g
         style="fill:#000000;fill-opacity:1"
         transform="matrix(1.4175482,0,0,1.4175482,-84.407979,-300.00431)"
         id="g3875">
        <path
           style="fill:#000000;fill-opacity:1"
           d="m 259.94865,877.35105 c -2.18541,-0.19645 -3.90748,-0.63748 -5.83649,-1.49472 l -0.83378,-0.37055 0,-2.1561 0,-2.15609 0.24788,0.14999 c 1.63675,0.99046 3.26851,1.74154 4.4844,2.06411 2.32309,0.6163 4.76362,0.39609 5.50454,-0.49669 0.20507,-0.24709 0.26459,-0.41648 0.29363,-0.83573 0.0314,-0.454 0.004,-0.5767 -0.20136,-0.89867 -0.41261,-0.6471 -1.05781,-0.9755 -3.74896,-1.90817 -3.33129,-1.15451 -4.60474,-1.82137 -5.66109,-2.96463 -0.9299,-1.0064 -1.36519,-2.14858 -1.36818,-3.59011 -0.004,-1.74723 0.74348,-3.14548 2.23587,-4.18454 1.65446,-1.1519 3.73369,-1.63527 6.6283,-1.54091 2.03894,0.0664 4.35194,0.54729 6.25804,1.3009 l 0.47027,0.18594 0,1.93661 c 0,1.06516 -0.0139,1.93663 -0.0295,1.93663 -0.0162,0 -0.41172,-0.15235 -0.87886,-0.33858 -4.11575,-1.64077 -7.55558,-1.84909 -8.8122,-0.5337 -0.24327,0.25464 -0.28484,0.3624 -0.28484,0.73848 0,0.3544 0.051,0.50504 0.26134,0.7719 0.43344,0.54991 1.16997,0.90524 3.79893,1.83269 3.14587,1.10982 4.04479,1.56343 5.18616,2.61697 1.26831,1.17064 1.74739,2.24017 1.74739,3.90081 0,2.39412 -1.29394,4.18465 -3.7968,5.25404 -1.50736,0.64404 -3.74719,0.9525 -5.66465,0.78012 z"
           id="path3087"
           inkscape:connector-curvature="0" />
        <path
           style="fill:#000000;fill-opacity:1"
           d="m 300.92143,856.98715 c -0.93981,10e-4 -1.88504,0.0476 -2.42735,0.15625 -2.2382,0.44837 -3.92894,1.38577 -5.46886,3.03125 -1.27757,1.36513 -2.11515,2.84116 -2.54433,4.53125 -0.18865,0.74298 -0.20472,0.93775 -0.20472,2.46875 0,1.53097 0.0161,1.72577 0.20472,2.46875 0.54513,2.14667 1.87046,4.19078 3.65565,5.59375 1.46075,1.14798 3.34378,1.88931 5.32263,2.09375 2.99928,0.30989 5.87718,-0.40048 7.92546,-1.9375 0.31034,-0.23292 0.84757,-0.73478 1.22829,-1.125 1.99783,-2.04761 2.92452,-4.28722 2.92452,-7.125 0,-2.19248 -0.56559,-4.0427 -1.8132,-5.8125 -1.60776,-2.28062 -3.65212,-3.59617 -6.43394,-4.1875 -0.50524,-0.10774 -1.42906,-0.15728 -2.36887,-0.15625 z m -0.0585,4.09375 c 1.9146,0 3.42432,0.64377 4.53301,1.9375 0.94037,1.09733 1.34809,2.38891 1.34528,4.15625 -0.002,1.84444 -0.47222,3.18833 -1.52076,4.3125 -0.89198,0.95635 -1.92014,1.48172 -3.3047,1.6875 -1.10497,0.16421 -2.1535,0.0725 -3.21697,-0.28125 -1.74025,-0.5789 -3.03059,-2.07058 -3.50943,-4 -0.22736,-0.9162 -0.22763,-2.54554 0,-3.46875 0.67114,-2.72208 2.77704,-4.34375 5.67357,-4.34375 z"
           id="path3085"
           inkscape:connector-curvature="0" />
        <path
           style="fill:#000000;fill-opacity:1"
           d="m 272.28554,857.17465 0,9.9375 c 0,5.46233 0.0322,9.9697 0.0625,10 0.0304,0.0304 1.1322,0.0312 2.46875,0.0312 l 2.4375,0 0,-4 0,-4 3.27203,-0.0312 c 2.40794,-0.0322 2.71519,-0.0577 3.3125,-0.21875 1.44906,-0.3906 2.66925,-1.21082 3.5,-2.375 0.74019,-1.03728 1.03425,-2.04419 1.03125,-3.4375 -0.002,-1.05072 -0.1278,-1.61093 -0.59375,-2.5625 -0.27853,-0.5688 -0.48334,-0.85792 -1.09375,-1.46875 -0.85129,-0.85189 -1.66199,-1.31093 -2.78125,-1.625 -0.62657,-0.17574 -0.79446,-0.19205 -5.84375,-0.21875 l -5.77203,-0.0312 z m 4.96875,3.65625 2.30328,0.0312 c 1.89458,0.045 2.47846,0.14828 3.0625,0.59375 0.57521,0.43881 0.81949,1.52226 0.5625,2.40625 -0.25208,0.86713 -0.88661,1.34553 -2.03125,1.53125 -0.29319,0.0475 -1.17432,0.0937 -1.9375,0.0937 l -1.95953,0 0,-2.34375 0,-2.3125 z"
           id="path3081"
           inkscape:connector-curvature="0"
           sodipodi:nodetypes="cssscccccsccscccccccscscccc" />
        <path
           style="fill:#000000;fill-opacity:1"
           d="m 314.49385,857.2059 0,9.96875 0,9.96875 2.46875,0 2.5,0 0,-4.0625 0,-4.0625 1.64593,0.0312 c 0.91009,0.0274 1.08505,0.051 1.40625,0.21875 0.62879,0.3284 1.00195,0.669 1.46875,1.375 0.55437,0.83846 0.82866,1.39711 1.8125,3.625 0.42675,0.96638 0.88567,2.03618 1.03125,2.34375 l 0.28125,0.53125 2.71875,0 2.71875,0 -0.1875,-0.40625 c -1.24163,-2.73865 -2.7955,-6.04691 -3.0625,-6.53125 -0.46526,-0.84398 -1.18057,-1.74988 -1.6875,-2.09375 -0.23509,-0.15948 -0.43673,-0.2898 -0.4375,-0.3125 -7.9e-4,-0.0228 0.24111,-0.15839 0.53125,-0.3125 1.34427,-0.71394 2.34671,-1.96841 2.65625,-3.28125 0.15716,-0.66974 0.15906,-1.95024 0,-2.625 -0.41464,-1.75898 -1.9778,-3.37875 -3.84375,-4 -1.07996,-0.3596 -2.03459,-0.37423 -7.14593,-0.375 l -4.875,0 z m 4.96875,3.625 2.17718,0 c 1.74991,0 2.35011,0.10239 2.90625,0.46875 0.6721,0.44273 1.00341,1.36435 0.8125,2.28125 -0.14254,0.68459 -0.50831,1.1122 -1.21875,1.46875 l -0.5625,0.3125 -1.78125,0.0312 -2.33343,0.0312 0,-2.3125 0,-2.28125 z"
           id="path3077"
           inkscape:connector-curvature="0"
           sodipodi:nodetypes="ccccccccssscccccsccccscccccscsccccccc" />
        <path
           sodipodi:nodetypes="cccccccccccccccccc"
           style="fill:#000000;fill-opacity:1"
           d="m 340.28849,868.99849 0,-8.16137 -3.64513,0 -4.05259,0 0,-1.82256 0,-1.82257 10.14161,0 10.25803,0 0,1.82257 0,1.82256 -4.12716,0 -3.6033,0 -0.0211,8.13941 -0.0212,8.13941 -2.4646,0.022 -2.46463,0.022 0,-8.16134 z"
           id="path2610"
           inkscape:connector-curvature="0" />
      </g>
    </g>
  </g>
</svg>
